<svg
   style="enable-background:new 0 0 512.001 512.001;"
   viewBox="0 0 512.001 512.001"
   y="0px"
   x="0px"
   showgrid="false"
   guidetolerance="10"
   gridtolerance="10"
   objecttolerance="10"
   borderopacity="1"
   bordercolor="#666666"
   pagecolor="#ffffff" />

<g
   style="fill:#ffffff"
   id="g57"><g
     style="fill:#ffffff"
     id="g6"
     transform="matrix(0.63258944,0,0,0.63258944,98.411477,95.166953)">
	<g
   style="fill:#ffffff"
   id="g4">
		<path
   style="fill:#ffffff"
   d="M 503.402,228.885 273.684,19.567 C 263.601,10.378 248.396,10.379 238.317,19.566 L 8.598,228.886 c -8.077,7.36 -10.745,18.7 -6.799,28.889 3.947,10.189 13.557,16.772 24.484,16.772 h 36.69 v 209.721 c 0,8.315 6.742,15.057 15.057,15.057 h 125.914 c 8.315,0 15.057,-6.741 15.057,-15.057 V 356.932 h 74.002 v 127.337 c 0,8.315 6.742,15.057 15.057,15.057 h 125.908 c 8.315,0 15.057,-6.741 15.057,-15.057 V 274.547 h 36.697 c 10.926,0 20.537,-6.584 24.484,-16.772 3.941,-10.19 1.273,-21.529 -6.804,-28.89 z"
   id="path2" />
	</g>
</g><g
     style="fill:#ffffff"
     id="g12"
     transform="matrix(0.63258944,0,0,0.63258944,98.411477,95.166953)">
	<g
   style="fill:#ffffff"
   id="g10">
		<path
   style="fill:#ffffff"
   d="M 445.092,42.73 H 343.973 l 116.176,105.636 v -90.58 c 0,-8.315 -6.741,-15.056 -15.057,-15.056 z"
   id="path8" />
	</g>
</g></g>
<g
   id="g14">
</g>
<g
   id="g16">
</g>
<g
   id="g18">
</g>
<g
   id="g20">
</g>
<g
   id="g22">
</g>
<g
   id="g24">
</g>
<g
   id="g26">
</g>
<g
   id="g28">
</g>
<g
   id="g30">
</g>
<g
   id="g32">
</g>
<g
   id="g34">
</g>
<g
   id="g36">
</g>
<g
   id="g38">
</g>
<g
   id="g40">
</g>
<g
   id="g42">
</g>
</svg>
