<?xml version="1.0" encoding="UTF-8" standalone="no"?>
<svg
   xmlns:dc="http://purl.org/dc/elements/1.1/"
   xmlns:cc="http://creativecommons.org/ns#"
   xmlns:rdf="http://www.w3.org/1999/02/22-rdf-syntax-ns#"
   xmlns:svg="http://www.w3.org/2000/svg"
   xmlns="http://www.w3.org/2000/svg"
   xmlns:sodipodi="http://sodipodi.sourceforge.net/DTD/sodipodi-0.dtd"
   xmlns:inkscape="http://www.inkscape.org/namespaces/inkscape"
   inkscape:version="1.0 (4035a4fb49, 2020-05-01)"
   sodipodi:docname="lexus.svg"
   id="svg82"
   xml:space="preserve"
   enable-background="new 0 0 1600 1000"
   viewBox="0 0 1600 1000"
   y="0px"
   x="0px"
   version="1.1"><metadata
   id="metadata88"><rdf:RDF><cc:Work
       rdf:about=""><dc:format>image/svg+xml</dc:format><dc:type
         rdf:resource="http://purl.org/dc/dcmitype/StillImage" /></cc:Work></rdf:RDF></metadata><defs
   id="defs86" /><sodipodi:namedview
   inkscape:current-layer="svg82"
   inkscape:window-maximized="0"
   inkscape:window-y="151"
   inkscape:window-x="2688"
   inkscape:cy="500"
   inkscape:cx="800"
   inkscape:zoom="0.655625"
   showgrid="false"
   id="namedview84"
   inkscape:window-height="1074"
   inkscape:window-width="1666"
   inkscape:pageshadow="2"
   inkscape:pageopacity="0"
   guidetolerance="10"
   gridtolerance="10"
   objecttolerance="10"
   borderopacity="1"
   bordercolor="#666666"
   pagecolor="#ffffff" />
<g
   style="fill:#ffffff"
   transform="matrix(0.74073741,0,0,0.74073741,193.98459,128.73603)"
   id="Layer_1">
	<g
   style="fill:#ffffff"
   id="g50">
		<path
   style="fill:#ffffff"
   id="path2"
   d="m 1505.67,479.735 c -4.323,-22.445 -21.591,-34.534 -21.591,-34.534 l 7.766,-19.002 -0.738,-22.276 c 0,0 -66.066,-33.835 -141.787,-112.78 -75.722,-78.945 -185.279,-86.996 -257.777,-88.614 -72.498,-1.605 -277.982,11.08 -347.75,33.434 -70.725,22.665 -195.207,105.13 -195.207,105.13 0,0 -16.827,4.815 -150.641,14.316 -133.827,9.488 -214.131,62.157 -234.841,80.291 -20.723,18.134 -28.502,54.39 -28.502,54.39 0,0 -20.71,2.589 -35.389,26.768 -14.678,24.179 0.854,66.48 3.443,82.88 2.602,16.413 -21.577,79.436 -10.355,100.16 2.861,5.268 48.514,10.096 115.485,14.316 -1.503,-1.588 -2.954,-3.118 -4.351,-4.779 -0.686,-0.814 -1.359,-1.713 -2.019,-2.57 0.66,0.832 1.333,1.656 2.019,2.472 1.398,1.659 2.849,3.285 4.357,4.874 24.435,25.751 62.615,42.323 105.529,42.323 37.511,0 71.394,-12.672 95.653,-33.057 3.578,-3.006 6.954,-6.174 10.094,-9.5 -67.521,-2.058 -158.166,-6.626 -219.612,-9.657 0.627,0.839 1.268,1.671 1.922,2.496 -0.351,-0.455 -0.698,-0.892 -1.042,-1.303 -0.296,-0.363 -0.589,-0.703 -0.88,-0.998 -0.002,0 -0.004,-0.102 -0.005,-0.104 -24.14,-1.178 -43.776,-2.184 -55.723,-2.663 -11.222,-0.44 -21.927,-5.318 -29.189,-13.874 -3.935,-4.647 -6.99,-10.432 -7.197,-17.292 -0.608,-19.934 16.309,-30.813 12.685,-40.482 -3.624,-9.669 -12.685,-10.876 -7.249,-28.402 5.436,-17.526 77.327,-140.779 89.416,-144.403 12.089,-3.624 279.134,-1.813 283.354,-1.813 4.233,0 12.09,-0.596 -32.023,30.211 -44.1,30.819 -20.542,29.007 2.42,53.173 22.962,24.166 108.146,111.77 111.175,132.312 3.016,20.542 -6.045,40.475 -70.699,43.504 -15.636,0.725 -43.608,0.323 -77.353,-0.699 -3.145,3.327 -6.511,6.485 -10.096,9.501 180.606,6.368 375.269,9.643 396.483,8.414 l 23.456,-6.409 -23.45,6.414 -1.653,0.452 c 0,0 17.66,40.448 65.514,56.399 47.854,15.951 105.962,11.394 137.295,-22.218 24.938,-26.752 45.546,-71.547 53.78,-93.601 0.969,-2.595 1.757,-4.856 2.371,-6.755 -0.612,1.899 -1.4,4.161 -2.369,6.757 -3.249,16.788 -6.291,28.684 -6.291,28.684 l 300.479,-43.013 c -0.052,-0.324 -0.091,-0.518 -0.091,-0.518 l 26.513,-5.814 c 1.087,-10.886 7.119,-68.965 15.999,-98.723 9.821,-32.918 21.547,-80.56 53.913,-82.02 -15.59,3.927 -35.78,49.691 -45.591,82.587 -8.877,29.763 -14.92,87.844 -15.999,98.72 l 7.335,-1.104 0.581,0.773 -0.581,-0.772 -7.335,1.105 -34.829,5.248 c 0,0 0.031,0.193 0.09,0.524 0.796,4.453 7.286,36.722 28.79,40.485 16.986,2.973 38.017,5.007 47.97,5.877 23.051,4.225 38.177,-9.16 45.022,-20.894 8.086,-13.862 15.595,-41.377 16.173,-43.11 0,0 0,-0.974 0.01,-2.124 l 1.817,-0.251 c 0,0 11.26,-33.667 14.703,-51.801 3.457,-18.136 0.906,-84.616 -3.404,-107.061 z m -1343.743,16.97 c -13.293,10.277 -24.089,-2.848 -24.089,-2.848 0,0 5.954,-20.102 11.404,-32.787 5.436,-12.698 24.762,-27.195 24.762,-27.195 l 22.962,14.497 c 0,0 -21.745,38.068 -35.039,48.333 z m 986.608,-268.081 c 12.577,-0.762 26.766,0.597 41.301,3.326 35.371,6.642 72.805,21.456 94.144,33.978 3.719,2.182 7.718,4.645 11.872,7.304 14.631,9.366 31.18,21.176 44.209,31.821 13.207,10.79 22.798,20.38 23.083,25 0.578,9.147 0.145,25.313 -4.346,30.973 0,0.003 0,0.006 -0.01,0.009 -0.084,0.106 -0.173,0.198 -0.261,0.296 -0.079,0.09 -0.155,0.186 -0.237,0.269 -0.061,0.063 -0.127,0.113 -0.19,0.172 -0.112,0.105 -0.223,0.214 -0.339,0.307 -0.156,0.125 -0.319,0.233 -0.484,0.335 -0.026,0.016 -0.051,0.038 -0.078,0.054 -0.193,0.114 -0.391,0.212 -0.596,0.294 -2.014,0.804 -31.748,1.673 -71.918,2.07 -28.337,0.28 -61.861,0.323 -94.528,-0.057 -15.678,-0.182 -31.158,-0.462 -45.768,-0.861 0,0.001 0,0.002 0,0.003 2.912,5.887 8.386,13.155 6.691,16.401 -0.015,0.029 -0.026,0.061 -0.042,0.09 -0.01,0.018 -0.025,0.033 -0.035,0.051 -0.346,0.567 -0.928,1.001 -1.813,1.266 -6.446,1.929 -38.236,-6.925 -39.207,-19.066 -32.969,-1.581 -56.255,-4.083 -58.157,-7.852 -0.091,-0.18 -0.15,-0.363 -0.142,-0.549 0.09,-2.071 53.652,-123.019 96.845,-125.634 z M 579.603,329.443 c 23.591,-15.305 110.819,-71.061 144.273,-80.726 30.869,-8.918 73.197,-20.01 128.255,-26.359 14.239,-1.641 29.315,-2.97 45.28,-3.856 77.715,-4.323 198.624,-6.563 198.624,1.204 0,5.818 -29.583,55.546 -51.684,83.032 -7.399,9.2 -13.959,15.908 -18.29,17.641 -4.685,1.874 -11.741,2.981 -21.093,3.605 -25.121,1.674 -66.938,-0.157 -124.824,-0.157 -54.444,0 -174.587,10.139 -247.298,12.631 -23.505,0.804 -42.065,0.81 -51.829,-0.586 -3.219,-0.461 -4.142,-4.659 -1.414,-6.429 z M 768.697,697.18 c -0.002,0.001 -0.003,0.002 -0.005,0.002 -0.392,0.211 -0.776,0.405 -1.16,0.597 -0.116,0.058 -0.235,0.124 -0.35,0.181 -4.291,2.108 -8.062,3.063 -11.402,3.07 -19.603,0.039 -24.242,-32.891 -30.387,-61.178 -0.461,-2.124 -0.931,-4.223 -1.417,-6.278 -1.198,-5.065 -1.9,-9.385 -2.234,-13.086 -1.955,-21.62 8.987,-21.542 11.683,-17.785 3.145,4.413 36.929,93.583 35.272,94.477 z m 26.574,-270.372 c -1.934,2.506 -5.957,6.256 -11.358,10.778 -20.351,17.041 -60.352,45.093 -82.756,59.327 -5.47,3.475 -9.896,6.131 -12.724,7.596 -6.945,3.603 -38.808,8.929 -74.862,14.006 -1.163,0.164 -2.33,0.327 -3.501,0.49 -1.363,0.19 -2.729,0.379 -4.1,0.568 -52.917,7.288 -111.596,13.765 -113.092,13.437 -6.512,-1.448 -10.673,-3.102 -12.879,-4.912 -7.298,-5.984 6.766,-13.662 27.785,-21.143 35.201,-12.528 89.91,-24.506 96.463,-27.054 1.274,-0.495 1.791,-0.921 1.685,-1.287 -0.865,-2.984 -43.098,-2.02 -53.486,-2.597 -3.094,-0.172 -2.352,-1.988 0.806,-4.782 5.353,-4.734 17.646,-12.273 29.975,-19.371 7.788,-4.484 15.591,-8.791 21.667,-12.104 8.224,-4.488 34.386,-10.893 64.859,-17.26 37.073,-7.745 80.514,-15.431 105.837,-19.54 7.949,-1.29 14.125,-2.23 17.741,-2.705 24.605,-3.231 12.955,12.302 1.94,26.553 z m 67.542,289.406 -6.849,1.901 c -19.204,-22.486 -27.99,-49.174 -27.99,-49.174 0.066,-1.239 0.491,-2.531 0.491,-3.858 v -10e-4 c 0,-0.473 -0.103,-0.967 -0.052,-1.451 -0.05,0.482 -0.209,0.975 -0.253,1.446 0.434,-2.985 0.916,-6.114 1.47,-9.323 0.099,-0.658 0.188,-1.304 0.298,-1.975 1.311,-7.236 2.928,-14.984 4.853,-23.154 1.844,-7.484 3.965,-15.272 6.239,-23.102 -0.051,0.184 -0.203,0.365 -0.254,0.549 -1.584,5.469 -3.086,10.913 -4.466,16.247 1.306,-5.27 2.726,-10.692 4.262,-16.247 -4.577,15.8 -8.535,31.411 -10.818,44.645 2.307,-13.388 6.324,-29.208 10.968,-45.194 -0.051,0.184 -0.1,0.365 -0.15,0.549 0.052,-0.181 0.104,-0.362 0.156,-0.543 0.049,-0.179 0.104,-0.363 0.153,-0.542 0.767,-2.632 1.547,-5.268 2.342,-7.897 2.104,0.6 17.691,5.036 28.513,7.884 11.626,3.06 29.371,11.626 33.042,15.909 3.671,4.283 4.895,27.535 3.06,34.878 -1.537,6.145 -34.345,45.702 -45.015,58.453 z m 32.599,29.548 c -6.179,-1.881 -11.901,-4.61 -17.187,-7.919 1.713,-3.1 8.988,-16.275 16.702,-30.412 8.504,-15.586 17.541,-32.338 20.242,-38.042 5.507,-11.626 -0.612,-15.297 1.224,-23.252 1.836,-7.955 14.685,-1.836 22.64,1.224 7.954,3.06 18.357,25.087 25.699,36.101 0.738,1.107 1.541,2.548 2.385,4.223 7.55,14.983 18.604,49.623 20.255,49.623 0.044,0 0.104,-0.016 0.164,-0.034 -24.355,17.48 -56.12,19.445 -92.124,8.488 z m 42.397,-203.035 c 0,-14.685 1.836,-45.892 1.836,-45.892 0,0 -8.687,-0.931 -13.686,-1.688 18.327,0.435 38.132,6.055 53.411,13.695 18.421,9.21 37.326,32.073 49.293,68.786 -0.873,-1.564 -1.518,-2.472 -1.518,-2.472 0,0 -39.773,20.804 -68.531,33.654 -28.759,12.85 -29.371,-3.059 -29.371,-3.059 0,0 2.448,-8.566 6.119,-14.073 3.671,-5.507 2.447,-34.266 2.447,-48.951 z m 95.079,126.967 -0.148,0.041 c -5.245,16.429 -13.926,31.697 -25.196,47.325 -1.122,1.557 -2.283,3.04 -3.46,4.489 -2.464,-2.721 -15.416,-17.266 -25.891,-33.805 -0.552,-0.872 -1.12,-1.748 -1.695,-2.626 -11.538,-17.619 -27.383,-36.271 -33.795,-43.265 -6.73,-7.343 -4.283,-10.402 -3.671,-16.521 0.612,-6.119 29.982,-14.073 39.161,-14.685 9.179,-0.612 54.458,-15.297 54.458,-15.297 0,0 0.282,-0.86 0.371,-2.427 0.488,1.97 0.964,3.961 1.413,5.997 6.067,27.48 5.062,50.051 -1.547,70.774 z m 30.085,-11.043 c 3.74,-26.126 -2.327,-53.931 -7.769,-72.978 -10.361,-36.262 -48.394,-106.653 -74.296,-117.877 -21.44,-9.291 -55.423,-31.697 -86.568,7.865 -6.673,8.69 -13.061,19.659 -18.942,33.432 -0.479,1.124 -0.945,2.248 -1.419,3.372 -0.78,1.853 -1.568,3.705 -2.333,5.557 3.163,-3.881 13.602,-15.103 32.265,-20.395 5.818,-1.65 12.169,-2.43 18.762,-2.503 0.663,3.57 3.31,19.844 5.959,42.097 3.06,25.699 1.224,44.668 -6.119,61.189 -7.343,16.521 -16.521,10.402 -22.028,8.566 -5.507,-1.836 -51.398,-26.311 -51.398,-26.311 l -2.359,7.079 c 5.801,-18.337 11.835,-35.6 16.388,-48.195 -7.217,18.996 -13.5,37.655 -18.747,55.272 l -0.094,0.282 -1.26,3.792 c -0.028,-0.094 -0.044,-0.191 -0.044,-0.191 l 0.002,-0.329 0.041,-0.122 1.262,-3.473 0.094,-0.12 c 5.242,-17.617 11.533,-36.201 18.743,-55.189 1.453,-4.017 2.752,-7.508 3.848,-10.459 2.26,-6.093 3.641,-9.65 3.641,-9.65 0,0 0.285,-0.396 0.823,-1.07 0.073,-0.093 0.135,-0.169 0.218,-0.272 0.765,-1.853 1.554,-3.704 2.336,-5.557 0.474,-1.126 0.936,-2.25 1.417,-3.375 6.098,-14.278 12.457,-25.193 18.939,-33.426 33.488,-43.612 74.289,-29.462 95.887,-20.104 25.9,11.222 64.758,88.925 75.113,125.193 5.449,19.051 2.074,51.439 -2.362,77.9 z m 46.227,-35.825 c -2.969,-38.019 -14.98,-74.457 -29.167,-109.614 -1.302,-3.227 1.955,-1.3 3.282,1.834 14.909,35.194 28.986,69.161 31.604,107.505 0.252,3.692 -5.433,3.935 -5.719,0.275 z m 152.409,-185.559 c -46.609,-3.798 -88.564,-6.526 -135.425,-6.021 -17.55,0.189 -38.538,1.333 -55.275,7.21 -4.999,1.755 -11.126,4.355 -13.722,9.322 -3.476,6.651 -0.685,9.916 3.212,15.027 2.469,3.238 -2.592,6.698 -5.124,3.609 -5.175,-6.314 -10.068,-14.795 -7.555,-23.218 2.067,-6.928 8.526,-11.22 14.862,-13.893 17.031,-7.185 37.063,-7.762 55.273,-8.086 16.809,-0.299 33.61,0.462 50.385,1.468 32.82,1.969 65.444,6.05 98.198,8.816 40.852,3.45 83.395,5.087 123.303,-5.932 3.438,-0.949 -7.053,3.007 -14.178,5.3 -41.727,13.424 -70.698,9.924 -113.954,6.398 z m 132.603,27.178 c -10.035,26.117 -23.298,50.85 -28.138,78.702 -5.042,29.016 -5.012,57.226 -2.773,87.63 0.251,3.406 -5.338,3.056 -5.949,-0.259 -4.717,-25.58 -4.961,-46.796 -0.504,-75.09 4.554,-28.905 17.916,-53.641 29.847,-80.059 4.917,-10.886 8.849,-14.391 7.517,-10.924 z m 62.284,38.718 c 0,0 0.017,0.898 0.058,1.415 11.489,2.56 21.15,24.54 25.309,54.538 -10e-4,0.002 -10e-4,0.155 0,0.157 -1.485,2.564 -8.803,14.909 -15.261,19.106 -7.226,4.697 -15.175,7.626 -16.621,5.819 -1.445,-1.807 7.588,-8.417 9.394,-15.282 1.681,-6.39 -2.271,-57.381 -2.826,-64.345 -0.041,-0.515 -0.064,-1.409 -0.064,-1.409 h 0.013 z m -6.882,2.839 c 0.538,7.621 5.595,55.486 3.6,58.478 -2.168,3.252 -9.346,15.118 -9.346,13.311 0,-1.394 -12.003,-10.77 -17.494,-14.987 0,-0.035 0.01,-0.072 0.012,-0.106 -0.016,-0.012 -0.03,-0.023 -0.046,-0.035 3.629,-29.501 12.456,-51.626 23.274,-56.661 z m 23.842,158.087 c 0,0 -0.285,-1.138 -0.764,-3.036 -5.071,11.745 -11.468,18.773 -18.428,18.773 -6.747,0 -12.969,-6.595 -17.963,-17.699 -0.083,-0.129 -0.132,-0.206 -0.132,-0.206 0,0 0.01,-0.025 0.016,-0.061 -1.849,-4.153 -3.529,-8.92 -5.001,-14.21 -4.192,-15.068 -6.709,-34.31 -6.709,-55.283 0,-5.272 0.267,-10.425 0.572,-15.44 5.008,2 22.165,9.017 20.31,10.562 -2.168,1.807 -8.348,8.672 -5.819,13.008 2.529,4.336 9.556,11.923 9.917,11.201 0.229,-0.457 -5.14,19.727 -9.122,34.642 -2.198,8.233 -3.972,14.856 -4.15,15.52 -0.01,0.036 -0.016,0.061 -0.016,0.061 0,0 0.049,0.077 0.132,0.206 0.994,1.552 7.441,11.606 6.773,10.272 -0.344,-0.687 1.769,-13.554 4.196,-27.052 2.676,-14.883 5.734,-30.534 6.302,-31.482 1.084,-1.807 7.959,1.445 9.766,9.394 0.765,3.366 2.697,11.202 4.671,19.119 1.822,7.308 3.677,14.68 4.685,18.674 0.469,1.861 0.753,2.984 0.764,3.028 z m 6.478,-23.293 v 0.005 l -3.205,0.394 c -1.681,-12.563 -5.291,-33.472 -9.543,-36.724 -6.143,-4.697 -21.791,-11.562 -13.842,-13.369 7.949,-1.807 23.791,-9.756 27.404,-14.091 1.68,-2.017 2.077,-6.063 2.055,-9.818 0.816,7.974 1.255,16.42 1.255,25.174 0,17.911 -1.389,34.557 -4.536,48.423 z m 9.149,-139.813 c -0.208,-0.854 -0.451,-1.681 -0.699,-2.502 0.249,0.82 0.494,1.645 0.704,2.508 1.772,7.295 3.141,19.909 4.107,33.91 -0.967,-14.003 -2.338,-26.62 -4.112,-33.916 z" />
		<path
   style="fill:#ffffff"
   id="path4"
   d="m 843.108,599.061 c 0.005,10e-4 0.003,10e-4 0.009,0.002 -0.32,1.1 -0.616,2.173 -0.927,3.263 0.311,-1.09 0.603,-2.164 0.922,-3.262 -0.002,0.001 -0.003,-0.003 -0.004,-0.003 z" />
		<path
   style="fill:#ffffff"
   id="path6"
   d="m 830.802,724.969 v 0 c 0.061,-0.212 0.108,-0.436 0.151,-0.664 -0.042,0.229 -0.089,0.452 -0.151,0.664 z" />
		<polygon
   style="fill:#ffffff"
   id="polygon8"
   points="1062.604,661.566 1062.603,661.561 1063.81,661.236 " />
		<path
   style="fill:#ffffff"
   id="path10"
   d="m 1482.13,558.945 c 0,0 0.027,0.173 0.069,0.473 -0.042,-0.294 -0.069,-0.466 -0.069,-0.471 z" />
		<path
   style="fill:#ffffff"
   id="path12"
   d="m 829.891,654.198 c -0.095,0.529 -0.171,1.034 -0.261,1.558 -0.296,1.961 -0.561,3.882 -0.772,5.716 0.265,-2.322 0.63,-4.753 1.033,-7.274 z" />
		<path
   style="fill:#ffffff"
   id="path14"
   d="m 873.976,512.464 c 0.475,-1.124 0.939,-2.248 1.417,-3.372 5.882,-13.772 12.266,-24.742 18.938,-33.431 -6.481,8.233 -12.841,19.149 -18.939,33.427 -0.48,1.125 -0.942,2.25 -1.416,3.376 z" />
		<path
   style="fill:#ffffff"
   id="path16"
   d="m 880.144,310.883 c 22.38,0 42.298,0.272 59.87,0.512 13.864,0.19 25.837,0.354 36.468,0.354 10.798,0 35.998,-0.001 44.613,-3.322 3.189,-1.782 14.363,-13.061 34.522,-43.522 9.741,-14.717 17.329,-27.47 22.111,-36.164 -8.527,-0.641 -22.893,-1.234 -46.856,-1.234 -37.832,0 -89.937,1.539 -132.746,3.92 -74.321,4.123 -130.245,18.05 -170.661,29.722 -21.058,6.088 -69.696,34.172 -115.337,62.873 33.051,-0.406 83.786,-3.573 132.96,-6.645 53.484,-3.341 104.002,-6.494 135.056,-6.494 z" />
		<path
   style="fill:#ffffff"
   id="path18"
   d="m 288.197,533.69 c 1.421,0 2.818,-0.084 4.195,-0.23 10.74,-11.463 20.917,-23.408 30.127,-36.142 -2.917,-14.454 -17.168,-25.429 -34.321,-25.429 -19.262,0 -34.878,13.835 -34.878,30.9 -0.001,17.066 15.614,30.901 34.877,30.901 z" />
		<path
   style="fill:#ffffff"
   id="path20"
   d="m 415.766,510.715 c 0.013,-0.495 0.049,-0.984 0.095,-1.471 -11.07,-0.447 -22.14,-1.419 -33.15,-2.125 -17.164,-1.1 -34.067,-1.48 -51.158,-0.247 -4.31,5.861 -8.933,11.737 -13.948,17.704 20.373,-0.159 40.757,-0.127 61.124,0.028 12.34,0.094 24.679,0.299 37.014,0.69 1.821,0.058 3.661,0.098 5.506,0.135 -3.377,-4.049 -5.641,-8.739 -5.483,-14.714 z" />
		<path
   style="fill:#ffffff"
   id="path22"
   d="m 391.055,486.42 c 13.563,0.656 26.964,0.621 40.363,-0.275 4.127,-3.46 9.036,-7.087 14.701,-11.045 3.604,-2.517 6.797,-4.782 9.63,-6.821 -40.189,-0.198 -76.835,-0.297 -109.214,-0.297 -10.487,0 -20.206,0.011 -29.203,0.03 5.682,4 10.375,9.158 13.638,15.138 20.052,0.234 40.062,2.301 60.085,3.27 z" />
		<path
   style="fill:#ffffff"
   id="path24"
   d="m 394.761,492.335 c -20.434,-0.885 -40.811,-2.721 -61.247,-3.571 0.709,1.936 1.278,3.937 1.693,5.994 l 1.121,5.555 -0.412,0.569 c 15.471,-1.273 31.112,-0.53 46.567,0.48 11.666,0.763 23.267,1.375 34.89,1.735 1.411,-3.489 3.746,-6.864 6.947,-10.305 -9.915,0.289 -19.868,-0.038 -29.559,-0.457 z" />
		<path
   style="fill:#ffffff"
   id="path26"
   d="m 247.589,479.68 c 2.948,-4.339 6.688,-8.181 11.051,-11.335 -34.081,0.36 -46.79,0.913 -51.453,1.311 -1.676,1.744 -4.473,5.173 -8.518,10.77 16.328,0.712 32.551,0.304 48.92,-0.746 z" />
		<path
   style="fill:#ffffff"
   id="path28"
   d="m 241.016,495.706 c 0.592,-3.304 1.579,-6.488 2.929,-9.503 -16.222,1.381 -32.773,0.802 -49.04,-0.456 -1.99,2.868 -4.213,6.156 -6.664,9.868 17.467,-1.32 35.171,-0.719 52.775,0.091 z" />
		<path
   style="fill:#ffffff"
   id="path30"
   d="m 243.595,518.577 c -2.071,-4.902 -3.22,-10.223 -3.22,-15.787 0,-0.231 0.015,-0.459 0.019,-0.689 -18.671,-0.8 -37.326,-2.007 -55.987,-0.611 -2.358,3.651 -4.904,7.658 -7.639,12.038 22.31,0.859 44.549,3.326 66.827,5.049 z" />
		<path
   style="fill:#ffffff"
   id="path32"
   d="m 446.565,547.806 c -4.763,-5.014 -9.7,-8.863 -14.056,-12.263 -1.567,-1.224 -3.145,-2.455 -4.672,-3.724 -3.586,-0.239 -7.167,-0.461 -10.734,-0.579 -12.537,-0.414 -25.082,-0.604 -37.624,-0.721 -22.296,-0.208 -44.594,-0.006 -66.889,-0.096 -3.414,3.908 -6.978,7.859 -10.751,11.885 l -3.293,3.514 -4.788,0.508 c -1.921,0.204 -3.74,0.303 -5.559,0.303 -17.642,0 -33.071,-8.81 -41.36,-21.877 -24.51,-1.765 -48.956,-4.757 -73.507,-5.69 -3.03,4.915 -6.274,10.254 -9.744,16.055 -1.624,2.715 -3.212,5.393 -4.772,8.04 24.37,2.401 48.784,4.112 73.263,5.097 49.771,2.003 99.597,1.578 149.395,1.224 22.038,-0.157 44.164,-0.454 66.291,-0.42 -0.415,-0.431 -0.822,-0.857 -1.2,-1.256 z" />
		<path
   style="fill:#ffffff"
   id="path34"
   d="m 445.313,555.368 c -96.504,-0.765 -193.517,3.838 -289.64,-6.855 -4.547,7.786 -8.764,15.173 -12.523,21.901 20.163,2.318 40.379,4.069 60.682,5.056 57.447,2.793 115.284,1.966 172.783,1.421 31.943,-0.303 63.875,-0.975 95.799,-1.94 -6.998,-7.407 -13.348,-14.056 -18.532,-19.483 -2.856,-0.04 -5.711,-0.078 -8.569,-0.1 z" />
		<path
   style="fill:#ffffff"
   id="path36"
   d="m 348.86,669.794 c -40.854,-2.623 -81.672,-5.834 -122.544,-8.159 -19.739,-1.123 -39.499,-1.992 -59.256,-2.715 -10.38,-0.38 -20.772,-0.926 -31.159,-0.988 -4.15,-0.025 -8.294,-0.1 -12.424,-0.325 -1.96,3.922 -3.356,7.948 -3.215,12.571 0.094,3.08 1.431,6.122 4.123,9.297 4.743,5.597 11.934,8.985 19.787,9.293 6.386,0.252 15.021,0.733 24.993,1.292 8.612,0.482 18.368,1.024 28.91,1.556 v -1.868 l 247.367,11.509 c 10.15,0.197 19.398,0.086 27.401,0.086 h 0.008 c 9.441,0 17.172,0.348 22.975,0.076 39.417,-1.842 51.926,-9.822 55.875,-14.615 1.036,-1.257 2.034,-2.82 2.571,-5.196 -68.496,-3.506 -136.968,-7.419 -205.412,-11.814 z" />
		<path
   style="fill:#ffffff"
   id="path38"
   d="m 126.702,651.77 c 5.128,0.153 10.271,0.142 15.428,0.297 11.328,0.339 22.655,0.69 33.979,1.137 22.878,0.903 45.746,1.953 68.601,3.319 81.147,4.849 162.218,10.733 243.394,15.175 22.149,1.212 44.301,2.387 66.456,3.529 -0.056,-0.646 -0.127,-1.314 -0.23,-2.031 -0.38,-1.456 -3.013,-8.261 -21.063,-30.353 -5.615,-0.158 -11.231,-0.322 -16.845,-0.496 -68.904,-2.125 -137.778,-5.106 -206.684,-7.155 -33.379,-0.992 -66.741,-1.654 -100.133,-1.909 -25.455,-0.195 -51.098,-0.644 -76.398,-3.79 1.448,8.569 -2.875,16.025 -6.443,22.173 -0.022,0.034 -0.042,0.069 -0.062,0.104 z" />
		<path
   style="fill:#ffffff"
   id="path40"
   d="m 131.114,623.133 c 31.551,3.878 63.439,3.949 95.229,4.073 67.736,0.264 135.479,3.361 203.163,5.784 32.772,1.173 65.544,2.326 98.322,3.296 -3.961,-4.713 -8.496,-9.986 -13.727,-15.917 -3.529,-4.002 -7.136,-8.029 -10.762,-12.038 -2.686,0.01 -5.371,0.032 -8.057,0.037 -67.995,0.137 -135.988,-0.251 -203.98,-0.787 -30.582,-0.241 -61.074,0.406 -91.647,0.69 -24.504,0.228 -49.341,-0.434 -73.304,-5.791 -0.577,1.306 -0.992,2.344 -1.212,3.052 -1.82,5.864 -1.503,6.29 0.976,9.608 1.474,1.976 3.388,4.563 4.999,7.993 z" />
		<path
   style="fill:#ffffff"
   id="path42"
   d="m 218.3,601.793 c 63.311,-1.609 126.718,0.025 190.045,0.273 29.809,0.117 59.627,0.197 89.445,0.16 -6.696,-7.329 -13.368,-14.508 -19.67,-21.219 -7.87,0.245 -15.74,0.469 -23.61,0.673 -57.947,1.5 -115.922,1.894 -173.885,1.398 -47.077,-0.403 -93.952,-1.592 -140.615,-7.002 -4.678,8.497 -8.469,15.681 -11.079,20.952 29.232,6.145 59.648,5.521 89.369,4.765 z" />
		<path
   style="fill:#ffffff"
   id="path44"
   d="m 1109.452,348.432 c -0.067,-0.404 -0.134,-0.807 -0.198,-1.192 -3.237,-19.396 -8.656,-51.859 11.328,-63.154 11.66,-6.59 34.763,-11.192 56.183,-11.192 11.877,0 28.958,1.425 42.882,8.208 20.58,10.026 32.779,23.3 33.469,36.416 0.272,5.164 -1.389,9.912 -4.559,13.38 -1.676,14.21 -14.258,15.362 -18.223,15.362 -3.772,0 -7.797,-0.829 -12.892,-1.893 -5.866,-1.225 -13.168,-2.727 -20.163,-2.727 -5.813,0 -10.559,1.068 -14.507,3.174 -4.867,2.595 -8.876,4.716 -12.18,6.68 21.141,0.368 44.521,0.506 68.92,0.506 0,0 0,0 0,0 52.869,0 95.35,-0.821 109.759,-1.583 0.789,-3.78 1.385,-10.418 1.047,-17.977 -5.891,-8.927 -42.267,-37.434 -72.897,-55.412 -29.274,-17.182 -84.122,-35.698 -121.689,-35.698 -2.21,0 -4.37,0.078 -6.423,0.201 -4.643,0.282 -22.161,5.026 -52.66,54.166 -12.185,19.633 -21.874,38.938 -27.448,50.803 6.961,0.939 18.499,2.055 37.508,3.036 0.827,-0.279 1.823,-0.681 2.739,-1.104 z" />
		<path
   style="fill:#ffffff"
   id="path46"
   d="m 828,665.079 c 0,0.001 0,0.003 0,0.004 0,-0.854 0.16,-1.731 0.255,-2.618 -0.095,0.886 -0.255,1.761 -0.255,2.614 z" />
		<path
   style="fill:#ffffff"
   id="path48"
   d="m 871.422,518.3 c -0.538,0.674 -0.823,1.08 -0.823,1.08 0,0 -1.381,3.577 -3.641,9.67 -1.094,2.95 -2.392,6.481 -3.843,10.498 2.713,-7.141 5.559,-14.329 8.53,-21.527 -0.085,0.104 -0.149,0.186 -0.223,0.279 z" />
	</g>
</g>

</svg>
