<?xml version="1.0" encoding="UTF-8" standalone="no"?>
<svg
   xmlns:dc="http://purl.org/dc/elements/1.1/"
   xmlns:cc="http://creativecommons.org/ns#"
   xmlns:rdf="http://www.w3.org/1999/02/22-rdf-syntax-ns#"
   xmlns:svg="http://www.w3.org/2000/svg"
   xmlns="http://www.w3.org/2000/svg"
   xmlns:sodipodi="http://sodipodi.sourceforge.net/DTD/sodipodi-0.dtd"
   xmlns:inkscape="http://www.inkscape.org/namespaces/inkscape"
   inkscape:version="1.0 (4035a4fb49, 2020-05-01)"
   sodipodi:docname="work.svg"
   version="1.1"
   width="512"
   viewBox="0 0 24 24"
   height="512"
   enable-background="new 0 0 24 24"
   id="bold">
  <metadata
     id="metadata13">
    <rdf:RDF>
      <cc:Work
         rdf:about="">
        <dc:format>image/svg+xml</dc:format>
        <dc:type
           rdf:resource="http://purl.org/dc/dcmitype/StillImage" />
      </cc:Work>
    </rdf:RDF>
  </metadata>
  <defs
     id="defs11" />
  <sodipodi:namedview
     inkscape:current-layer="bold"
     inkscape:window-maximized="0"
     inkscape:window-y="220"
     inkscape:window-x="2644"
     inkscape:cy="248.42581"
     inkscape:cx="312.59604"
     inkscape:zoom="1.3921165"
     showgrid="false"
     id="namedview9"
     inkscape:window-height="999"
     inkscape:window-width="1640"
     inkscape:pageshadow="2"
     inkscape:pageopacity="0"
     guidetolerance="10"
     gridtolerance="10"
     objecttolerance="10"
     borderopacity="1"
     bordercolor="#666666"
     pagecolor="#ffffff" />
  <path
     style="stroke-width:0.762614;fill:#ffffff"
     id="path2"
     d="m 14.287843,7.2837101 c -0.420963,0 -0.762614,-0.3416511 -0.762614,-0.7626141 V 5.3771747 H 10.474772 V 6.521096 c 0,0.420963 -0.341651,0.7626141 -0.7626147,0.7626141 -0.420963,0 -0.7626141,-0.3416511 -0.7626141,-0.7626141 V 5.3771747 c 0,-0.8411634 0.6840649,-1.5252283 1.5252288,-1.5252283 h 3.050457 c 0.841164,0 1.525228,0.6840649 1.525228,1.5252283 V 6.521096 c 0,0.420963 -0.341651,0.7626141 -0.762614,0.7626141 z" />
  <path
     style="stroke-width:0.762614;fill:#ffffff"
     id="path4"
     d="m 12.541457,14.055724 c -0.137271,0.05339 -0.335551,0.09151 -0.541456,0.09151 -0.205906,0 -0.404186,-0.03813 -0.587214,-0.106766 L 2.8486301,11.188295 v 5.818746 c 0,1.159174 0.9380155,2.097189 2.0971889,2.097189 h 14.108363 c 1.159173,0 2.097188,-0.938015 2.097188,-2.097189 v -5.818746 z" />
  <path
     style="stroke-width:0.762614;fill:#ffffff"
     id="path6"
     d="m 21.15137,8.2369777 v 1.7463865 l -8.968342,2.9894478 c -0.06101,0.02288 -0.122018,0.0305 -0.183027,0.0305 -0.06101,0 -0.122019,-0.0076 -0.183028,-0.0305 L 2.8486301,9.9833642 V 8.2369777 c 0,-1.1591734 0.9380155,-2.0971889 2.0971889,-2.0971889 h 14.108363 c 1.159173,0 2.097188,0.9380155 2.097188,2.0971889 z" />
</svg>
