<svg
   xmlns:dc="http://purl.org/dc/elements/1.1/"
   xmlns:cc="http://creativecommons.org/ns#"
   xmlns:rdf="http://www.w3.org/1999/02/22-rdf-syntax-ns#"
   xmlns:svg="http://www.w3.org/2000/svg"
   xmlns="http://www.w3.org/2000/svg"
   xmlns:sodipodi="http://sodipodi.sourceforge.net/DTD/sodipodi-0.dtd"
   xmlns:inkscape="http://www.inkscape.org/namespaces/inkscape"
   inkscape:version="1.0 (4035a4fb49, 2020-05-01)"
   sodipodi:docname="work.svg"
   version="1.1"
   width="512"
   viewBox="0 0 24 24"
   height="512"
   enable-background="new 0 0 24 24"
   id="bold">
  <metadata
     id="metadata13">
    <rdf:RDF>
      <cc:Work
         rdf:about="">
        <dc:format>image/svg+xml</dc:format>
        <dc:type
           rdf:resource="http://purl.org/dc/dcmitype/StillImage" />
      </cc:Work>
    </rdf:RDF>
  </metadata>
  <defs
     id="defs11" />
  <sodipodi:namedview
     inkscape:current-layer="bold"
     inkscape:window-maximized="0"
     inkscape:window-y="220"
     inkscape:window-x="2644"
     inkscape:cy="248.42581"
     inkscape:cx="312.59604"
     inkscape:zoom="1.3921165"
     showgrid="false"
     id="namedview9"
     inkscape:window-height="999"
     inkscape:window-width="1640"
     inkscape:pageshadow="2"
     inkscape:pageopacity="0"
     guidetolerance="10"
     gridtolerance="10"
     objecttolerance="10"
     borderopacity="1"
     bordercolor="#666666"
     pagecolor="#ffffff" />
  <path
     style="fill:#ffffff;stroke-width:0.653181"
     id="path2"
     d="m 13.959543,8.5085201 c -0.360556,0 -0.653181,-0.2926251 -0.653181,-0.653181 V 6.8755676 h -2.612724 v 0.9797715 c 0,0.3605559 -0.292625,0.653181 -0.653181,0.653181 -0.3605561,0 -0.653181,-0.2926251 -0.653181,-0.653181 V 6.8755676 c 0,-0.7204586 0.5859033,-1.3063619 1.306362,-1.3063619 h 2.612724 c 0.720459,0 1.306362,0.5859033 1.306362,1.3063619 v 0.9797715 c 0,0.3605559 -0.292625,0.653181 -0.653181,0.653181 z" />
  <path
     style="fill:#ffffff;stroke-width:0.653181"
     id="path4"
     d="m 12.463759,14.308767 c -0.117573,0.04573 -0.2874,0.07838 -0.463758,0.07838 -0.176359,0 -0.346187,-0.03266 -0.502951,-0.09145 l -7.3352211,-2.44289 v 4.98377 c 0,0.992836 0.8034126,1.796248 1.7962475,1.796248 H 18.041925 c 0.992834,0 1.796246,-0.803412 1.796246,-1.796248 v -4.98377 z" />
  <path
     style="fill:#ffffff;stroke-width:0.653181"
     id="path6"
     d="m 19.838171,9.3249962 v 1.4957848 l -7.681407,2.560469 c -0.05226,0.0196 -0.104509,0.02612 -0.156763,0.02612 -0.05226,0 -0.10451,-0.0065 -0.156764,-0.02612 L 4.1618289,10.820781 V 9.3249962 c 0,-0.992835 0.8034127,-1.7962477 1.7962476,-1.7962477 H 18.041925 c 0.992834,0 1.796246,0.8034127 1.796246,1.7962477 z" />
</svg>
